<svg xmlns="http://www.w3.org/2000/svg" width="420" height="420" viewBox="0 0 420 420">
<g fill="none" stroke="#6E6A4E" stroke-width="2.4" stroke-linecap="round" opacity="0.95">
  <!-- ветка 1 -->
  <path d="M40 90 q40 -28 86 -34"/>
  <path d="M62 78 q2 -12 -6 -20 M62 78 q12 -2 18 -12"/>
  <path d="M92 64 q0 -12 -8 -18 M92 64 q12 0 18 -10"/>
  <ellipse cx="120" cy="52" rx="4" ry="6" transform="rotate(-30 120 52)"/>
  <!-- ветка 2 -->
  <path d="M300 180 q-36 20 -80 22"/>
  <path d="M272 190 q-2 12 6 20 M272 190 q-12 2 -18 12"/>
  <path d="M240 198 q0 12 8 18 M240 198 q-12 0 -18 10"/>
  <ellipse cx="214" cy="206" rx="4" ry="6" transform="rotate(24 214 206)"/>
  <!-- ветка 3 -->
  <path d="M110 330 q30 -34 72 -44"/>
  <path d="M134 310 q0 -12 -8 -19 M134 310 q12 -1 19 -10"/>
  <ellipse cx="176" cy="290" rx="4" ry="6" transform="rotate(-38 176 290)"/>
  <!-- ветка 4 -->
  <path d="M356 320 q-26 26 -62 34"/>
  <path d="M334 336 q-1 11 7 18 M334 336 q-11 2 -17 11"/>
  <ellipse cx="304" cy="348" rx="4" ry="5" transform="rotate(30 304 348)"/>
  <!-- одинокий листок -->
  <ellipse cx="356" cy="70" rx="5" ry="8" transform="rotate(18 356 70)"/>
  <path d="M356 78 q-2 10 -8 14"/>
  <ellipse cx="52" cy="220" rx="5" ry="8" transform="rotate(-15 52 220)"/>
  <path d="M52 228 q2 10 8 14"/>
</g>
</svg>